<?xml version="1.0" standalone="no"?><!DOCTYPE svg PUBLIC "-//W3C//DTD SVG 1.1//EN" "http://www.w3.org/Graphics/SVG/1.1/DTD/svg11.dtd"><svg t="1586416404540" class="icon" viewBox="0 0 1024 1024" version="1.1" xmlns="http://www.w3.org/2000/svg" p-id="1419" xmlns:xlink="http://www.w3.org/1999/xlink" width="200" height="200"><defs><style type="text/css"></style></defs><path d="M202.185398 743.114028h16.669401V660.4758h33.338802v-16.38064H202.211649v98.966366zM952.229696 238.543068C952.229696 106.815422 866.467596 0 760.439705 0c-105.870386 0-191.527482 106.815422-191.527482 238.543068 0 121.122231 72.636587 180.134537 166.510254 188.954881v118.287121c-55.914684 4.35767-99.963905 50.060705-99.963904 106.447908v264.242822c0 59.248564 48.433142 107.235439 108.390484 107.235439h33.260049c59.826087 0 108.416735-47.986874 108.416735-107.235439V652.232978c0-56.387203-44.154225-102.116489-100.016407-106.447908v-118.208368c94.031173-8.899098 166.694011-67.990156 166.694011-189.033634z m-116.659557 413.768663v264.242822a58.067268 58.067268 0 0 1-58.356029 57.752256h-33.2863a57.962264 57.962264 0 0 1-58.277277-57.621001V652.337982a57.936013 57.936013 0 0 1 58.014766-57.804758h33.548811a57.988515 57.988515 0 0 1 58.356029 57.804758z m-75.104183-272.433142c-78.228056 0-141.676784-41.161608-141.676785-140.968007 0-99.911403 63.474979-189.269893 141.676785-189.269893 78.33306 0 141.650533 89.358491 141.650533 189.269893 0 99.806399-63.317473 140.968007-141.650533 140.968007zM377.200984 8.321575a24.938474 24.938474 0 0 0-25.017227 24.780968v181.578343h-1.207547c-3.150123 26.513536-19.635767 42.526661-40.426579 42.526661-20.73831 0-37.355209-16.013126-40.426579-42.526661h-1.312552V28.114848c0-15.435603-11.130435-28.036095-25.017227-28.036095-13.808039 0-25.017227 12.600492-25.017227 28.036095v186.644791h-1.207547c-3.097621 26.408532-19.557014 42.447908-40.426579 42.447908-20.817063 0-37.276456-16.013126-40.295324-42.526661h-1.312552V33.102543a24.938474 24.938474 0 0 0-25.017227-24.780968 24.938474 24.938474 0 0 0-24.990976 24.780968v231.140279c0 54.759639 44.757998 99.123872 99.963905 99.123872h33.338802v182.497129c-55.835931 4.35767-99.963905 50.060705-99.963905 106.447908v264.242822C118.864643 975.803117 167.376538 1023.789992 227.176374 1023.789992h33.338802c59.826087 0 108.337982-47.986874 108.337982-107.235439V652.337982c0-56.465956-44.154225-102.247744-100.068909-106.447908v-182.497129h33.417556c55.205906 0 99.990156-44.364233 99.990156-99.123872V33.076292a24.859721 24.859721 0 0 0-24.990977-24.780968zM318.844955 652.337982v264.242822a58.067268 58.067268 0 0 1-58.277277 57.752256H227.176374a58.067268 58.067268 0 0 1-58.356029-57.752256V652.337982a58.014766 58.014766 0 0 1 58.251025-57.804758H260.515176a57.962264 57.962264 0 0 1 58.277277 57.804758z m399.908121 90.802297h16.669401V660.4758h33.443807v-16.38064h-50.113208v98.966366z" fill="#38BFD4" p-id="1420"></path></svg>